<svg xmlns="http://www.w3.org/2000/svg" viewBox="0 0 512 512"><style>.a{fill:#C8D0E2;}.b{fill:#ACB7C9;}.c{fill:#FBCB99;}.d{fill:#EDBA89;}</style><path d="M395.7 257.2c-5.6-11.5-16-15.6-17.2-16l-30.8-12.4 -16.2 16.8 -16.9-16.5 -30.6 12 -0.2 0.1c-1.9 0.7-11.6 4.8-17 16l-3.1 6.4 5.6 4.4c17.9 14.2 39.3 21.7 62.1 21.7 22.7 0 44.2-7.5 62.1-21.7l5.6-4.4L395.7 257.2z" fill="#6598CB"/><path d="M323.7 279.8c-27-4.4-42-19.1-46.3-23.9 1.9-5.1 5.9-7.8 8.5-9.1l29.1-11.8 5.7 0.1 -6.1-5.9 -30.6 12 -0.2 0.1c-1.9 0.7-11.6 4.8-17 16l-3.1 6.4 5.6 4.4c15.6 12.4 33.9 19.7 53.4 21.3C334.1 287.3 345.3 283.4 323.7 279.8z" fill="#3B7EAD"/><path d="M214.9 377.9h-19.1c-1.9-6.7-4.6-13.1-7.9-19.1l13.5-13.5c1.3-1.3 1.3-3.3 0-4.6l-30.4-30.4c-0.6-0.6-1.4-1-2.3-1 -0.9 0-1.7 0.3-2.3 1l-13.5 13.5c-6.1-3.4-12.5-6-19.1-7.9v-19.1c0-1.8-1.5-3.2-3.3-3.2H87.6c-1.8 0-3.3 1.5-3.3 3.3v19.1c-6.7 1.9-13.1 4.6-19.1 7.9l-13.5-13.5c-0.6-0.6-1.4-1-2.3-1 -0.9 0-1.7 0.3-2.3 1l-30.4 30.4c-1.3 1.3-1.3 3.3 0 4.6l13.5 13.5c-3.4 6.1-6 12.5-7.9 19.1H3.3c-1.8 0-3.3 1.5-3.3 3.3v42.9c0 1.8 1.5 3.3 3.3 3.3h19.1c1.9 6.7 4.5 13.1 7.9 19.1L16.8 459.9c-1.3 1.3-1.3 3.3 0 4.6l30.4 30.4c0.6 0.6 1.5 1 2.3 1 0.8 0 1.7-0.3 2.3-0.9l13.5-13.5c6.1 3.4 12.5 6 19.1 7.9V508.4c0 1.8 1.5 3.3 3.3 3.3h42.9c1.8 0 3.3-1.5 3.3-3.2v-19.1c6.7-1.9 13.1-4.6 19.1-7.9l13.5 13.5c0.6 0.6 1.5 1 2.3 1 0.8 0 1.7-0.3 2.3-1l30.4-30.4c1.3-1.3 1.3-3.3 0-4.6l-13.5-13.5c3.4-6.1 6-12.5 7.9-19.1h19.1c1.8 0 3.3-1.5 3.3-3.2v-42.9C218.1 379.3 216.7 377.9 214.9 377.9zM154.4 402.6c0 0.8 0 1.7-0.1 2.7 0 0.2 0 0.4 0 0.7l0 0.2c-0.1 0.7-0.1 1.3-0.2 1.9 0 0.3-0.1 0.5-0.1 0.8 -0.1 0.7-0.2 1.4-0.4 2.2 0 0.2-0.1 0.4-0.1 0.5 -0.2 0.9-0.4 1.7-0.6 2.6 0 0.2-0.1 0.3-0.1 0.4 0 0 0 0 0 0.1 -0.2 0.7-0.4 1.4-0.6 2.1 -0.1 0.2-0.1 0.4-0.2 0.7 -0.2 0.7-0.5 1.4-0.7 2l-0.2 0.5c-0.7 1.6-1.5 3.3-2.3 4.8l-0.2 0.3c-0.4 0.7-0.8 1.3-1.2 2 -0.1 0.2-0.2 0.3-0.3 0.4 -1.5 2.3-3.2 4.4-5 6.4l-0.2 0.2c-1.9 2-3.9 3.8-6.2 5.4l-0.8 0.6c-0.5 0.4-1.1 0.7-1.6 1.1l-0.2 0.1c-0.2 0.1-0.4 0.3-0.7 0.4 -0.3 0.2-0.5 0.3-0.8 0.5l-0.2 0.1c-0.2 0.1-0.4 0.2-0.5 0.3 -0.3 0.2-0.6 0.3-0.8 0.4l-0.3 0.1c-0.7 0.4-1.4 0.7-2.1 1l-0.2 0.1c-0.4 0.2-0.8 0.3-1.2 0.5 -0.4 0.2-0.7 0.3-1.1 0.4l-0.2 0.1c-0.6 0.2-1.2 0.4-1.9 0.6l-0.3 0.1 -0.2 0.1c-0.1 0-0.1 0-0.2 0.1l-0.7 0.2c0 0 0 0-0.1 0l-1.5 0.4c-0.1 0-0.3 0.1-0.4 0.1l-1 0.2c-1.1 0.2-1.9 0.4-2.8 0.5 -0.1 0-0.2 0-0.3 0l-0.3 0c-0.8 0.1-1.6 0.2-2.5 0.3 -0.3 0-0.6 0-0.9 0.1 -1.1 0.1-2.1 0.1-3 0.1 -0.9 0-1.9 0-3-0.1 -0.2 0-0.5 0-0.7-0.1 -0.5 0-1-0.1-1.5-0.2l-0.2 0c-0.3 0-0.6-0.1-0.8-0.1 -0.2 0-0.4 0-0.5-0.1 -0.9-0.1-1.7-0.3-2.8-0.5 -0.4-0.1-0.7-0.2-1-0.2 -0.5-0.1-1.1-0.3-1.6-0.4l-0.3-0.1c-0.4-0.1-0.8-0.2-1.2-0.4 -0.6-0.2-1.1-0.4-1.7-0.6 0 0 0 0-0.1 0 -0.1 0-0.2-0.1-0.3-0.1 -0.4-0.2-0.9-0.3-1.3-0.5 -0.4-0.2-0.8-0.3-1.2-0.5 -0.8-0.4-1.6-0.7-2.3-1.1l-0.4-0.2c-0.3-0.2-0.5-0.3-0.7-0.4 -0.5-0.3-0.9-0.5-1.4-0.8 -0.2-0.1-0.3-0.2-0.5-0.3 -0.1-0.1-0.2-0.1-0.3-0.2l0 0 -0.3-0.2c0 0-0.1-0.1-0.1-0.1 -11.3-7.2-18.8-18.9-20.5-32.1l-0.1-0.5c-0.1-0.7-0.2-1.4-0.2-2.2l-0.1-0.7c-0.1-1-0.1-1.9-0.1-2.7 0-1 0-2.1 0.1-3.3l0-0.2c0-0.3 0-0.7 0.1-1.1l0-0.2c0.1-0.7 0.2-1.3 0.2-1.9 0-0.2 0.1-0.4 0.1-0.6l0-0.2c0.1-0.5 0.2-0.9 0.2-1.3 0.1-0.3 0.1-0.5 0.2-0.7l0.1-0.3c0.1-0.4 0.2-0.8 0.3-1.1 0.1-0.2 0.1-0.5 0.2-0.7l0.1-0.3c0.1-0.3 0.2-0.7 0.3-1 0.1-0.3 0.2-0.6 0.3-0.8l0-0.1c0.1-0.4 0.2-0.7 0.4-1.1 0.1-0.3 0.2-0.7 0.4-1 0.1-0.4 0.3-0.7 0.4-1.1 0.1-0.3 0.3-0.6 0.4-0.9 0.1-0.3 0.3-0.7 0.5-1 0.1-0.3 0.3-0.6 0.4-0.9 0.2-0.4 0.4-0.7 0.5-1 0.1-0.3 0.3-0.6 0.5-0.9 0.2-0.3 0.4-0.7 0.6-1 0.2-0.3 0.3-0.6 0.5-0.9 0.2-0.3 0.4-0.6 0.6-1 0.2-0.3 0.4-0.6 0.6-0.8 0.2-0.3 0.4-0.6 0.7-0.9 0.2-0.3 0.4-0.5 0.6-0.8 0.2-0.3 0.5-0.6 0.7-0.9l0.1-0.1c0.2-0.2 0.3-0.4 0.5-0.6 0.3-0.3 0.5-0.6 0.8-0.9l0.2-0.2c0.2-0.2 0.3-0.3 0.5-0.5 0.3-0.3 0.5-0.6 0.8-0.8l0.3-0.3c0.1-0.2 0.3-0.3 0.4-0.4 0.5-0.5 0.9-0.9 1.4-1.3l0.2-0.2c0.5-0.5 1-0.9 1.5-1.3 0.2-0.1 0.3-0.3 0.5-0.4l0.1-0.1c0.4-0.3 0.7-0.6 1.1-0.9 0.2-0.1 0.3-0.3 0.5-0.4l0.1-0.1c0.3-0.2 0.7-0.5 1-0.7 0.2-0.1 0.4-0.3 0.6-0.4l0.2-0.1c0.3-0.2 0.7-0.4 1-0.7 0.2-0.1 0.4-0.2 0.6-0.4l0.1-0.1c0.3-0.2 0.7-0.4 1-0.6 0.2-0.1 0.5-0.3 0.7-0.4l0.1-0.1c0.4-0.2 0.7-0.4 1.1-0.5 0.3-0.1 0.6-0.3 0.9-0.4 0.4-0.2 0.7-0.3 1.1-0.5 0.3-0.1 0.6-0.2 0.9-0.4 0.4-0.2 0.8-0.3 1.1-0.4 0.3-0.1 0.6-0.2 0.9-0.3 0.4-0.1 0.8-0.3 1.1-0.4 0.3-0.1 0.6-0.2 0.9-0.3 0.4-0.1 0.8-0.2 1.2-0.3 0.3-0.1 0.6-0.2 0.9-0.2 0.4-0.1 0.8-0.2 1.2-0.3 0.3-0.1 0.6-0.1 0.9-0.2 0.4-0.1 0.8-0.1 1.2-0.2l0.3-0.1c0.2 0 0.5-0.1 0.7-0.1 0.4-0.1 0.8-0.1 1.3-0.2l0.3 0c0.2 0 0.4-0.1 0.7-0.1 0.5 0 1-0.1 1.5-0.1l0.2 0c0.2 0 0.4 0 0.6 0 0.8 0 1.5-0.1 2.3-0.1 0.7 0 1.5 0 2.2 0.1 0.2 0 0.4 0 0.6 0l0.3 0c0.5 0 0.9 0.1 1.3 0.1 0.2 0 0.4 0 0.6 0.1l0.5 0.1c0.4 0 0.7 0.1 1.1 0.1 0.3 0 0.5 0.1 0.8 0.1l0.2 0c0.4 0.1 0.8 0.1 1.2 0.2 0.3 0.1 0.6 0.1 0.9 0.2 0.5 0.1 0.8 0.2 1.2 0.3 0.3 0.1 0.6 0.1 0.9 0.2l0.1 0c0.4 0.1 0.7 0.2 1.1 0.3 0.3 0.1 0.6 0.2 0.9 0.3 0.4 0.1 0.7 0.2 1.1 0.4 0.3 0.1 0.6 0.2 1 0.4 0.3 0.1 0.7 0.3 1 0.4 0.3 0.1 0.6 0.3 0.9 0.4 0.3 0.1 0.7 0.3 1 0.5 0.3 0.1 0.6 0.3 0.9 0.4 0.3 0.2 0.7 0.3 1 0.5 0.3 0.2 0.6 0.3 0.9 0.5 0.3 0.2 0.7 0.4 1 0.6l0.1 0.1c0.2 0.1 0.5 0.3 0.7 0.4 0.3 0.2 0.6 0.4 1 0.6l0.1 0.1c0.2 0.1 0.4 0.3 0.7 0.4 0.3 0.2 0.6 0.4 0.8 0.6l0.2 0.2c0.2 0.2 0.4 0.3 0.6 0.5 0.3 0.2 0.6 0.5 0.9 0.7l0.2 0.2c0.2 0.1 0.4 0.3 0.5 0.4 0.4 0.3 0.8 0.7 1.2 1 0.3 0.2 0.5 0.5 0.8 0.7 0.4 0.3 0.7 0.7 1.1 1.1 0.2 0.2 0.3 0.3 0.5 0.5l0.3 0.4c0.2 0.2 0.4 0.5 0.6 0.7 0.2 0.2 0.3 0.4 0.5 0.6l0.3 0.3c0.2 0.3 0.4 0.5 0.6 0.7 0.2 0.2 0.3 0.4 0.5 0.6l0.2 0.3c0.2 0.2 0.4 0.5 0.6 0.7 0.2 0.2 0.4 0.5 0.5 0.7 0.3 0.4 0.5 0.7 0.7 1 0.2 0.3 0.4 0.6 0.6 0.9 0.2 0.3 0.4 0.6 0.6 0.9 0.2 0.3 0.4 0.6 0.5 0.9 0.2 0.3 0.4 0.7 0.6 1 0.2 0.3 0.3 0.6 0.5 0.9 0.2 0.3 0.3 0.6 0.5 1 0.2 0.3 0.3 0.6 0.5 1 0.1 0.3 0.3 0.7 0.4 1 0.1 0.3 0.3 0.7 0.4 1 0.1 0.3 0.3 0.6 0.4 1 0.1 0.4 0.3 0.7 0.4 1 0.1 0.4 0.3 0.8 0.4 1.1 0.1 0.3 0.2 0.6 0.3 0.9 0.1 0.3 0.2 0.7 0.3 1l0.1 0.3c0.1 0.3 0.1 0.5 0.2 0.8 0.1 0.3 0.2 0.7 0.2 1l0.1 0.4c0.1 0.3 0.1 0.5 0.2 0.7 0.1 0.4 0.1 0.8 0.2 1.1l0.1 0.4c0 0.2 0.1 0.4 0.1 0.6 0.1 0.6 0.2 1.2 0.2 1.9 0 0 0 0 0 0.1 0 0.1 0 0.2 0 0.3 0 0.3 0.1 0.7 0.1 1.1l0 0.2C154.4 400.5 154.4 401.6 154.4 402.6z" class="a"/><path d="M64 374l-0.1 0.1c-0.2 0.3-0.5 0.6-0.7 0.9 -0.2 0.3-0.4 0.5-0.6 0.8 -0.2 0.3-0.5 0.6-0.7 1 -0.2 0.3-0.4 0.6-0.6 0.8 -0.2 0.3-0.4 0.7-0.6 1 -0.2 0.3-0.4 0.6-0.5 0.9 -0.2 0.3-0.4 0.7-0.6 1 -0.2 0.3-0.3 0.6-0.5 0.9 -0.2 0.3-0.4 0.7-0.5 1.1 -0.1 0.3-0.3 0.6-0.4 0.9 -0.2 0.3-0.3 0.7-0.5 1 -0.1 0.3-0.3 0.7-0.4 1 -0.1 0.4-0.3 0.7-0.4 1.1 -0.1 0.3-0.2 0.6-0.4 1 -0.1 0.4-0.2 0.7-0.4 1.1l0 0.1c-0.1 0.3-0.2 0.6-0.3 0.9 -0.1 0.3-0.2 0.7-0.3 1l-0.1 0.3c-0.1 0.3-0.1 0.6-0.2 0.8 -0.1 0.4-0.2 0.8-0.3 1.2l-0.1 0.3c-0.1 0.2-0.1 0.5-0.2 0.8 -0.1 0.4-0.2 0.8-0.2 1.3l0 0.1c0 0.2-0.1 0.5-0.1 0.7 -0.1 0.6-0.2 1.3-0.2 1.9l0 0.3c0 0.4-0.1 0.7-0.1 1.1l0 0.2c-0.1 1.3-0.1 2.3-0.1 3.4 0 0.9 0 1.8 0.1 2.8l0.1 0.7c0.1 0.7 0.1 1.5 0.2 2.2l0.1 0.5c1.8 13.3 9.3 25 20.7 32.3l0.4 0.3 0.3 0.1c0.2 0.1 0.3 0.2 0.5 0.3 0.5 0.3 0.9 0.6 1.4 0.8 0.2 0.1 0.4 0.2 0.7 0.4l0.3 0.2c0.7 0.4 1.5 0.8 2.3 1.1 0.4 0.2 0.8 0.4 1.2 0.5 0.5 0.2 0.9 0.4 1.3 0.5 0.1 0.1 0.3 0.1 0.4 0.1 0.6 0.2 1.1 0.4 1.7 0.6 0.4 0.1 0.9 0.3 1.3 0.4l0.2 0.1c0.6 0.2 1.1 0.3 1.6 0.4 0.3 0.1 0.7 0.2 1.1 0.2 1 0.2 1.9 0.4 2.8 0.5 0.2 0 0.3 0 0.5 0.1 0.2 0 0.5 0.1 0.8 0.1l0.2 0c0.5 0.1 1 0.1 1.5 0.2 0.3 0 0.5 0 0.8 0.1 1.1 0.1 2.1 0.1 3 0.1 0.9 0 1.9 0 3-0.1 0.3 0 0.6 0 0.9-0.1 0.4 0 0.9-0.1 1.3-0.1 -0.1 0-0.2 0-0.3 0l-0.2 0c-0.3 0-0.6-0.1-0.8-0.1 -0.2 0-0.4 0-0.5-0.1 -0.9-0.1-1.7-0.3-2.8-0.5 -0.4-0.1-0.7-0.2-1.1-0.2 -0.5-0.1-1.1-0.3-1.6-0.4l-0.2-0.1c-0.4-0.1-0.9-0.3-1.3-0.4 -0.6-0.2-1.2-0.4-1.7-0.6 -0.1 0-0.3-0.1-0.4-0.1 -0.4-0.2-0.9-0.3-1.3-0.5 -0.4-0.2-0.8-0.3-1.2-0.5 -0.8-0.4-1.6-0.7-2.3-1.1l-0.3-0.2c-0.3-0.1-0.5-0.3-0.7-0.4 -0.5-0.3-0.9-0.5-1.4-0.8 -0.2-0.1-0.3-0.2-0.5-0.3l-0.3-0.1 -0.4-0.3c-11.3-7.3-18.9-19-20.7-32.3l-0.1-0.5c-0.1-0.7-0.2-1.5-0.2-2.2l0-0.7c-0.1-1-0.1-1.9-0.1-2.8 0-1 0-2.1 0.1-3.4l0-0.2c0-0.4 0.1-0.8 0.1-1.1l0-0.3c0.1-0.6 0.2-1.3 0.2-1.9 0-0.2 0.1-0.5 0.1-0.7l0-0.1c0.1-0.5 0.2-0.9 0.2-1.3 0.1-0.3 0.1-0.5 0.2-0.8l0.1-0.3c0.1-0.4 0.2-0.8 0.3-1.2 0.1-0.2 0.1-0.5 0.2-0.8l0.1-0.3c0.1-0.3 0.2-0.7 0.3-1 0.1-0.3 0.2-0.6 0.3-0.9l0-0.1c0.1-0.4 0.2-0.7 0.4-1.1 0.1-0.4 0.3-0.7 0.4-1 0.1-0.4 0.3-0.7 0.4-1.1 0.1-0.3 0.3-0.6 0.4-1 0.1-0.3 0.3-0.7 0.5-1 0.1-0.3 0.3-0.6 0.4-0.9 0.2-0.4 0.4-0.7 0.5-1.1 0.1-0.3 0.3-0.6 0.5-0.9 0.2-0.3 0.4-0.6 0.6-1 0.2-0.3 0.3-0.6 0.5-0.9 0.2-0.3 0.4-0.6 0.6-1 0.2-0.3 0.4-0.6 0.6-0.8 0.2-0.3 0.4-0.6 0.7-1 0.2-0.2 0.4-0.5 0.6-0.8 0.2-0.3 0.5-0.6 0.7-0.9l0.1-0.1c0.2-0.2 0.3-0.4 0.5-0.6 0.2-0.3 0.5-0.6 0.8-0.9l0.2-0.2c0.2-0.2 0.3-0.4 0.5-0.5 0.3-0.3 0.5-0.6 0.8-0.8l0.2-0.2c0.1-0.1 0.3-0.3 0.4-0.4 0.5-0.5 0.9-0.9 1.4-1.4l0.2-0.2c0.5-0.4 1-0.9 1.5-1.3 0.2-0.2 0.3-0.3 0.5-0.4l0.1-0.1c0.4-0.3 0.7-0.6 1.1-0.8 0.2-0.1 0.4-0.3 0.6-0.4l0.1-0.1c0.3-0.2 0.7-0.5 1-0.7 0.2-0.1 0.4-0.3 0.6-0.4l0.1-0.1c0.3-0.2 0.7-0.4 1-0.7 0.2-0.1 0.4-0.3 0.7-0.4l0.1-0.1c0.4-0.2 0.7-0.4 1-0.6 0.2-0.1 0.5-0.3 0.7-0.4l0.1-0.1c0.4-0.2 0.7-0.4 1.1-0.5 0.3-0.1 0.6-0.3 0.9-0.4 0.3-0.2 0.7-0.3 1.1-0.5 0.3-0.1 0.6-0.2 0.9-0.4 0.4-0.2 0.8-0.3 1.1-0.4 0.3-0.1 0.6-0.2 0.9-0.3 0.4-0.1 0.8-0.3 1.2-0.4 0.3-0.1 0.6-0.2 0.9-0.3 0.4-0.1 0.8-0.2 1.2-0.3 0.3-0.1 0.6-0.2 0.9-0.2 0.5-0.1 0.9-0.2 1.3-0.3 0.3-0.1 0.6-0.1 0.9-0.2 0.4-0.1 0.8-0.1 1.2-0.2l0.3 0c0.2 0 0.5-0.1 0.7-0.1 0.4-0.1 0.9-0.1 1.3-0.2l0.3 0c0 0 0.1 0 0.1 0 -0.2 0-0.4 0-0.6-0.1 -0.4 0-0.9-0.1-1.3-0.1l-0.3 0c-0.2 0-0.4 0-0.7 0 -1.5-0.1-3-0.1-4.6 0 -0.2 0-0.4 0-0.6 0l-0.1 0c-0.5 0-1 0.1-1.5 0.1 -0.2 0-0.5 0.1-0.7 0.1l-0.3 0c-0.4 0-0.8 0.1-1.3 0.2 -0.2 0-0.5 0.1-0.7 0.1l-0.3 0.1c-0.4 0.1-0.8 0.1-1.2 0.2 -0.3 0.1-0.6 0.1-0.9 0.2 -0.4 0.1-0.8 0.2-1.3 0.3 -0.3 0.1-0.6 0.2-0.9 0.2 -0.4 0.1-0.8 0.2-1.2 0.3 -0.3 0.1-0.6 0.2-0.9 0.3 -0.4 0.1-0.8 0.3-1.1 0.4 -0.3 0.1-0.6 0.2-0.9 0.3 -0.4 0.1-0.7 0.3-1.1 0.5 -0.3 0.1-0.6 0.2-0.9 0.4 -0.4 0.2-0.7 0.3-1.1 0.5 -0.3 0.1-0.6 0.3-0.9 0.4 -0.4 0.2-0.7 0.4-1.1 0.5l-0.1 0.1c-0.2 0.1-0.5 0.3-0.7 0.4 -0.3 0.2-0.7 0.4-1 0.6l-0.1 0.1c-0.2 0.1-0.5 0.3-0.7 0.4 -0.4 0.2-0.7 0.4-1 0.7l-0.1 0.1c-0.2 0.1-0.4 0.3-0.6 0.4 -0.3 0.2-0.7 0.5-1 0.7l-0.1 0.1c-0.2 0.1-0.4 0.3-0.6 0.4 -0.4 0.3-0.7 0.6-1.1 0.8l-0.1 0.1c-0.2 0.1-0.3 0.3-0.5 0.4 -0.5 0.4-1 0.8-1.5 1.3l-0.2 0.2c-0.5 0.4-1 0.9-1.4 1.4 -0.1 0.1-0.3 0.3-0.4 0.4l-0.2 0.2c-0.3 0.3-0.5 0.5-0.8 0.8 -0.2 0.2-0.3 0.4-0.5 0.5l-0.2 0.2c-0.3 0.3-0.5 0.6-0.8 0.9C64.4 373.6 64.2 373.8 64 374z" class="b"/><path d="M506.6 139.9h-31.5c-3.1-11-7.5-21.6-13.1-31.6l22.3-22.3c2.1-2.1 2.1-5.5 0-7.6l-50.2-50.2c-1-1-2.4-1.6-3.8-1.6 -1.4 0-2.8 0.6-3.8 1.6l-22.3 22.3c-10-5.6-20.6-10-31.6-13.1V5.7c0-3-2.4-5.4-5.4-5.4h-71c-3 0-5.4 2.4-5.4 5.4v31.5c-11 3.1-21.6 7.5-31.6 13.1l-22.3-22.3c-1-1-2.4-1.6-3.8-1.6 -1.4 0-2.8 0.6-3.8 1.6l-50.2 50.2c-2.1 2.1-2.1 5.5 0 7.6l22.3 22.3c-5.6 10-10 20.6-13.1 31.6h-31.5c-3 0-5.4 2.4-5.4 5.4v71c0 3 2.4 5.4 5.4 5.4h31.6c3.1 11 7.5 21.6 13.1 31.6l-22.3 22.3c-2.1 2.1-2.1 5.5 0 7.6l50.2 50.2c1.1 1 2.4 1.6 3.8 1.6 1.4 0 2.8-0.5 3.8-1.6l22.3-22.3c10 5.6 20.6 10 31.6 13.1v31.5c0 3 2.4 5.4 5.4 5.4h71c3 0 5.4-2.4 5.4-5.4v-31.5c11-3.1 21.6-7.5 31.6-13.1l22.3 22.3c1 1 2.4 1.6 3.8 1.6 1.4 0 2.8-0.5 3.8-1.6l50.2-50.2c2.1-2.1 2.1-5.5 0-7.6l-22.3-22.3c5.6-10 10-20.6 13.1-31.6h31.5c3 0 5.4-2.4 5.4-5.4v-71C512 142.3 509.6 139.9 506.6 139.9zM331.6 279.8c-54.7 0-99.1-44.4-99.1-99.1 0-54.7 44.4-99.1 99.1-99.1 54.7 0 99.1 44.4 99.1 99.1C430.7 235.5 386.3 279.8 331.6 279.8z" class="a"/><path d="M219.2 180.4c0 54.7 44.4 99 99.2 99 1.7 0 3.5 0.2 5.3 0.1 -51.2-4-91.5-47-91.5-99 0-52.2 40.5-95 91.9-98.8 -1.9-0.1-3.8-0.2-5.7-0.2C263.7 81.5 219.2 125.8 219.2 180.4z" class="b"/><path d="M332.8 111.2h-3.5c-23.7 0-43 19.3-43 43v5.7 5.4 9.1c0 0 9.8-1 11-5.7l0 0c0.4-0.4 0.8-1 1-1.5 5.6-0.2 31.5-0.4 46.3-18.3 1.8 5.2 7.7 15 19.3 18 0.2 0.6 0.6 1.2 1 1.7l-0.1 0.1c1.2 4.7 11 5.7 11 5.7v-9.1 -5.3 -5.7C375.8 130.4 356.5 111.2 332.8 111.2zM365.2 165.5l0.4-0.3h0.1l-0.7 0.5L365.2 165.5zM365 165.6l0-0.1 0.1-0.3h0.1l-0.2 0.4L365 165.6zM363.9 166.5l0 0 1.1-0.8 -0.2 0.2 -0.8 0.6L363.9 166.5zM364.7 166.3l-0.3 0.7c0 0 0 0 0 0l0 0c0 0 0 0 0 0l0.5-1.1 0 0L364.7 166.3z" fill="#694B4B"/><path d="M293.9 165.3v-5.4 -5.7c0-23 18.2-41.9 40.9-42.9 -0.7 0-1.4-0.1-2.1-0.1h-3.5c-23.7 0-43 19.3-43 43v5.7 5.4 9.1c0 0 4.3-0.4 7.6-2.1v-7H293.9z" fill="#563B3B"/><path d="M370.6 168.1c-1.6-0.5-3.4-0.2-4.8 0.8 -1.4 1-2.2 2.6-2.2 4.4v15.4c0 1.7 0.8 3.3 2.2 4.4 0.9 0.7 2.1 1.1 3.2 1.1 0.5 0 1.1-0.1 1.6-0.2 1-0.3 2.1-0.8 3-1.4 0.6-0.4 1.1-0.8 1.5-1.3 0.6-0.3 1.1-0.7 1.6-1.2 2.2-2.5 3.4-5.6 3.4-8.9C380.1 175 376.3 169.9 370.6 168.1z" class="c"/><path d="M296.5 168.9c-1.4-1-3.2-1.3-4.8-0.8 -5.7 1.8-9.5 6.9-9.5 12.9 0 5.9 3.8 11.1 9.5 12.9 0.5 0.2 1.1 0.2 1.6 0.2 1.1 0 2.3-0.4 3.2-1.1 1.4-1 2.2-2.6 2.2-4.4v-15.4C298.7 171.5 297.9 169.9 296.5 168.9z" class="d"/><path d="M345.9 215.6c-1.1-1-2.5-1.6-4-1.5l-0.2 0c-0.3 0-0.7 0.1-1 0.1 -2.1 0.5-4.2 0.7-6.3 0.7h-6.6c-2.2 0-4.4-0.2-6.5-0.7 -1.6-0.4-3.3 0-4.6 1 -1.3 1-2 2.6-2 4.2v15.7l0 0.1c-0.1 1.6 0.5 3.1 1.6 4.2l10.9 10.6c1 1 2.4 1.5 3.8 1.5 0 0 0.1 0 0.1 0 1.4 0 2.8-0.6 3.8-1.7l11.2-11.6c1-1 1.5-2.4 1.5-3.8v-15C347.6 218 347 216.6 345.9 215.6z" class="c"/><path d="M332.1 248.4l-10.9-10.6c-1.1-1.1-1.7-2.6-1.6-4.2l0-0.1v-15.7c0-1.4 0.5-2.7 1.5-3.7 -1.5-0.3-3.1 0.1-4.3 1.1 -1.3 1-2 2.6-2 4.2v15.7l0 0.1c-0.1 1.6 0.5 3.1 1.6 4.2l10.9 10.6c1 1 2.4 1.5 3.8 1.5 0 0 0.1 0 0.1 0 1.4 0 2.8-0.6 3.8-1.7l0 0C333.9 249.7 332.9 249.2 332.1 248.4z" class="d"/><path d="M362.8 163.7c-0.7-0.2-1.3-0.5-1.9-0.8 -9.1-4.2-12.9-9.8-14.4-13.1 -0.1-0.1-0.2-0.3-0.3-0.4 -1.1-2-2.8-0.7-2.8-0.7l0 0c-8.5 6.5-17.8 10.3-25.5 12.5 -3 0.9-5.9 1.5-8.5 2 -5.2 0.9-8.5 1.1-8.5 1.1 -2.8 0.2-5 2.6-5 5.4v22.1c0 17.6 14.3 31.9 31.9 31.9h6.6c17.6 0 31.9-14.3 31.9-31.9v-23C366.3 166.5 364.9 164.5 362.8 163.7z" class="c"/><path d="M302.5 191.7v-22.1c0-2.8 2.2-5.2 5-5.4 0 0 3.3-0.1 8.5-1.1 2.6-0.5 5.5-1.1 8.5-2 6.8-2 14.9-5.2 22.5-10.4 -0.2-0.3-0.3-0.7-0.5-1 -0.1-0.1-0.2-0.3-0.3-0.4 -1.1-2-2.8-0.7-2.8-0.7l0 0c-8.5 6.5-17.8 10.3-25.5 12.5 -3 0.9-5.9 1.5-8.5 2 -5.2 0.9-8.5 1.1-8.5 1.1 -2.8 0.2-5 2.6-5 5.4v22.1c0 17.6 14.3 31.9 31.9 31.9h6.5C316.8 223.6 302.5 209.3 302.5 191.7z" class="d"/></svg>